# xmcd
#
# Track frame offsets: 
#        150
#        18241
#        36481
#        55036
#        71747
#        90188
#        107852
#        125358
#        140667
#        163076
#        182724
#        198165
#
# Disc length: 2896 seconds
#
# Revision: 0
# Processed by: cddbd v1.5.2PL0 Copyright (c) Steve Scherf et al.
# Submitted via: ExactAudioCopy v1.0b1
#
DISCID=a20b4e0c
DTITLE=Vince Gill - Ballads
DYEAR=2007
DGENRE=Country
TTITLE0=I Still Believe in You
TTITLE1=Look at Us
TTITLE2=When Love Finds You
TTITLE3=Someday
TTITLE4=Let's Make Sure We Kiss Goodbye
TTITLE5=If I Didn't Have You in My World
TTITLE6=The Only Love
TTITLE7=What They All Call Love
TTITLE8=Nothing Like a Woman
TTITLE9=Whenever You Come Around
TTITLE10=You and You Alone
TTITLE11=When I Call Your Name
EXTD=
EXTT0=
EXTT1=
EXTT2=
EXTT3=
EXTT4=
EXTT5=
EXTT6=
EXTT7=
EXTT8=
EXTT9=
EXTT10=
EXTT11=
PLAYORDER=
